<svg width="52" height="52" viewBox="0 0 52 52" fill="none" xmlns="http://www.w3.org/2000/svg">
<g opacity="0.9">
<rect width="52" height="52" rx="16" fill="#EFC81A"/>
</g>
<path d="M36.1104 38.9995L25.9993 31.7773L15.8882 38.9995V15.8884C15.8882 15.1222 16.1925 14.3874 16.7343 13.8456C17.2761 13.3039 18.0109 12.9995 18.7771 12.9995H33.2215C33.9877 12.9995 34.7225 13.3039 35.2643 13.8456C35.806 14.3874 36.1104 15.1222 36.1104 15.8884V38.9995Z" stroke="#EFC81A" stroke-width="2" stroke-linecap="round" stroke-linejoin="round"/>
<path d="M36.1104 38.9995L25.9993 31.7773L15.8882 38.9995V15.8884C15.8882 15.1222 16.1925 14.3874 16.7343 13.8456C17.2761 13.3039 18.0109 12.9995 18.7771 12.9995H33.2215C33.9877 12.9995 34.7225 13.3039 35.2643 13.8456C35.806 14.3874 36.1104 15.1222 36.1104 15.8884V38.9995Z" stroke="#E9E9E8" stroke-width="2" stroke-linecap="round" stroke-linejoin="round"/>
</svg>
